<svg width="63" height="40" viewBox="0 0 63 40" fill="none" xmlns="http://www.w3.org/2000/svg">
<path d="M10.6 1.23998L9.03998 4.27998C8.31998 3.67998 7.39998 3.27998 6.43998 3.27998C5.71998 3.27998 4.75998 3.69998 4.75998 4.53998C4.75998 5.41998 5.81998 5.75998 6.49998 5.97998L7.49998 6.27998C9.59998 6.89998 11.22 7.95998 11.22 10.4C11.22 11.9 10.86 13.44 9.65998 14.46C8.47998 15.46 6.89998 15.88 5.37998 15.88C3.47998 15.88 1.61998 15.24 0.0799805 14.16L1.75998 11C2.73998 11.86 3.89998 12.56 5.23998 12.56C6.15998 12.56 7.13998 12.1 7.13998 11.04C7.13998 9.93998 5.59998 9.55998 4.75998 9.31998C2.29998 8.61998 0.679981 7.97998 0.679981 5.05998C0.679981 1.99998 2.85998 -2.0504e-05 5.87998 -2.0504e-05C7.39998 -2.0504e-05 9.25998 0.479979 10.6 1.23998ZM17.0442 6.61998L21.7842 0.39998L26.6442 0.39998L20.6442 7.53998L27.1842 15.48H22.1042L17.0442 8.93998H17.0042L17.0042 15.48L13.0842 15.48L13.0842 0.39998L17.0042 0.39998V6.61998H17.0442ZM37.4804 12.86H32.0804L31.0404 15.48H26.8804L32.6804 0.39998L36.9604 0.39998L42.6405 15.48H38.4605L37.4804 12.86ZM36.4204 9.85998L34.8204 5.05998H34.7804L33.1604 9.85998L36.4204 9.85998ZM43.8654 15.48V0.39998L49.4254 0.39998C53.6255 0.39998 57.0854 3.69998 57.0854 7.93998C57.0854 12.18 53.6054 15.48 49.4254 15.48H43.8654ZM47.7854 3.71998V12.16H48.6654C51.0054 12.16 53.0054 10.88 53.0054 7.93998C53.0054 5.23998 51.2254 3.71998 48.7054 3.71998H47.7854ZM8.33998 23.9C12.68 23.9 16.68 27.1 16.68 31.66C16.68 36.54 13.18 39.98 8.33998 39.98C3.49998 39.98 -1.95205e-05 36.54 -1.95205e-05 31.66C-1.95205e-05 27.1 3.99998 23.9 8.33998 23.9ZM8.33998 27.7C5.99998 27.7 4.07998 29.6 4.07998 31.68C4.07998 34.28 5.99998 36.18 8.33998 36.18C10.68 36.18 12.6 34.28 12.6 31.68C12.6 29.6 10.68 27.7 8.33998 27.7ZM26.0744 23.9C30.4144 23.9 34.4144 27.1 34.4144 31.66C34.4144 36.54 30.9144 39.98 26.0744 39.98C21.2344 39.98 17.7344 36.54 17.7344 31.66C17.7344 27.1 21.7344 23.9 26.0744 23.9ZM26.0744 27.7C23.7344 27.7 21.8144 29.6 21.8144 31.68C21.8144 34.28 23.7344 36.18 26.0744 36.18C28.4144 36.18 30.3344 34.28 30.3344 31.68C30.3344 29.6 28.4144 27.7 26.0744 27.7ZM46.0687 25.24L44.5087 28.28C43.7887 27.68 42.8687 27.28 41.9087 27.28C41.1887 27.28 40.2287 27.7 40.2287 28.54C40.2287 29.42 41.2887 29.76 41.9687 29.98L42.9687 30.28C45.0687 30.9 46.6887 31.96 46.6887 34.4C46.6887 35.9 46.3287 37.44 45.1287 38.46C43.9487 39.46 42.3687 39.88 40.8487 39.88C38.9487 39.88 37.0887 39.24 35.5487 38.16L37.2287 35C38.2087 35.86 39.3687 36.56 40.7087 36.56C41.6287 36.56 42.6087 36.1 42.6087 35.04C42.6087 33.94 41.0687 33.56 40.2287 33.32C37.7687 32.62 36.1487 31.98 36.1487 29.06C36.1487 26 38.3287 24 41.3487 24C42.8687 24 44.7287 24.48 46.0687 25.24ZM52.4729 30.22H58.133L58.133 24.4H62.0529L62.0529 39.48H58.133V33.3H52.4729V39.48H48.5529L48.5529 24.4H52.4729L52.4729 30.22Z" fill="#212721"/>
</svg>
